<svg width="284" height="368" viewBox="0 0 284 368" fill="none" xmlns="http://www.w3.org/2000/svg">
<path d="M196.205 236.406C196.205 249.883 193.568 261.211 188.295 270.391C183.119 279.473 175.893 286.357 166.615 291.045C157.436 295.635 146.986 297.93 135.268 297.93C123.549 297.93 113.051 295.635 103.773 291.045C94.4961 286.357 87.1719 279.473 81.8008 270.391C76.4297 261.211 73.7441 249.883 73.7441 236.406C73.7441 227.422 75.2578 219.268 78.2852 211.943C81.3125 204.619 85.5605 198.369 91.0293 193.193C96.5957 187.92 103.09 183.916 110.512 181.182C118.031 178.35 126.186 176.934 134.975 176.934C146.791 176.934 157.289 179.424 166.469 184.404C175.746 189.287 183.021 196.172 188.295 205.059C193.568 213.945 196.205 224.395 196.205 236.406ZM155.043 233.477C155.043 227.129 154.213 221.66 152.553 217.07C150.99 212.48 148.695 208.965 145.668 206.523C142.738 203.984 139.174 202.715 134.975 202.715C130.873 202.715 127.309 203.984 124.281 206.523C121.254 208.965 118.91 212.48 117.25 217.07C115.688 221.66 114.906 227.129 114.906 233.477C114.906 239.727 115.688 245.098 117.25 249.59C118.91 254.082 121.254 257.598 124.281 260.137C127.309 262.578 130.971 263.799 135.268 263.799C139.467 263.799 143.031 262.578 145.961 260.137C148.988 257.598 151.234 254.082 152.699 249.59C154.262 245.098 155.043 239.727 155.043 233.477ZM192.689 138.408C192.689 149.346 190.248 158.965 185.365 167.266C180.482 175.566 173.695 182.061 165.004 186.748C156.41 191.436 146.498 193.779 135.268 193.779C123.939 193.779 113.93 191.436 105.238 186.748C96.5469 182.061 89.7109 175.566 84.7305 167.266C79.8477 158.867 77.4062 149.248 77.4062 138.408C77.4062 125.518 79.8477 114.629 84.7305 105.742C89.7109 96.8555 96.5469 90.1172 105.238 85.5273C113.93 80.9375 123.891 78.6426 135.121 78.6426C146.449 78.6426 156.41 80.9375 165.004 85.5273C173.695 90.1172 180.482 96.8555 185.365 105.742C190.248 114.629 192.689 125.518 192.689 138.408ZM151.674 140.459C151.674 134.893 151.039 130.059 149.77 125.957C148.598 121.855 146.791 118.633 144.35 116.289C141.908 113.945 138.832 112.773 135.121 112.773C131.605 112.773 128.578 113.896 126.039 116.143C123.598 118.389 121.742 121.562 120.473 125.664C119.203 129.766 118.568 134.697 118.568 140.459C118.568 146.123 119.154 151.055 120.326 155.254C121.596 159.453 123.5 162.725 126.039 165.068C128.578 167.412 131.654 168.584 135.268 168.584C138.979 168.584 142.006 167.412 144.35 165.068C146.791 162.627 148.598 159.307 149.77 155.107C151.039 150.908 151.674 146.025 151.674 140.459Z" fill="black"/>
<path d="M243.375 275.312L252.406 249.188H257.656L245.281 283H241.469L229.125 249.188H234.375L243.375 275.312ZM232.781 249.188V283H227.281V249.188H232.781ZM253.781 283V249.188H259.312V283H253.781Z" fill="black"/>
<path d="M271.889 230.936H274.279C274.9 230.936 275.41 230.795 275.809 230.514C276.207 230.221 276.5 229.811 276.688 229.283C276.875 228.756 276.969 228.141 276.969 227.438C276.969 226.781 276.881 226.207 276.705 225.715C276.529 225.223 276.26 224.836 275.896 224.555C275.533 224.273 275.076 224.133 274.525 224.133C274.104 224.133 273.711 224.25 273.348 224.484C272.984 224.719 272.691 225.053 272.469 225.486C272.258 225.908 272.152 226.418 272.152 227.016H267.195C267.195 225.609 267.518 224.385 268.162 223.342C268.807 222.299 269.674 221.484 270.764 220.898C271.854 220.312 273.061 220.02 274.385 220.02C275.873 220.02 277.18 220.301 278.305 220.863C279.43 221.414 280.309 222.234 280.941 223.324C281.574 224.402 281.891 225.738 281.891 227.332C281.891 228.152 281.732 228.943 281.416 229.705C281.111 230.467 280.666 231.152 280.08 231.762C279.494 232.359 278.779 232.834 277.936 233.186C277.104 233.537 276.154 233.713 275.088 233.713H271.889V230.936ZM271.889 234.926V232.236H275.088C276.283 232.236 277.326 232.395 278.217 232.711C279.119 233.016 279.863 233.461 280.449 234.047C281.047 234.633 281.492 235.33 281.785 236.139C282.078 236.947 282.225 237.838 282.225 238.811C282.225 240.006 282.025 241.072 281.627 242.01C281.229 242.947 280.672 243.738 279.957 244.383C279.242 245.027 278.41 245.52 277.461 245.859C276.512 246.188 275.48 246.352 274.367 246.352C273.441 246.352 272.533 246.205 271.643 245.912C270.764 245.619 269.973 245.168 269.27 244.559C268.566 243.949 268.01 243.182 267.6 242.256C267.189 241.33 266.984 240.234 266.984 238.969H271.906C271.906 239.602 272.018 240.17 272.24 240.674C272.463 241.166 272.768 241.553 273.154 241.834C273.553 242.115 273.998 242.256 274.49 242.256C275.064 242.256 275.562 242.109 275.984 241.816C276.406 241.523 276.729 241.113 276.951 240.586C277.174 240.059 277.285 239.443 277.285 238.74C277.285 237.838 277.168 237.111 276.934 236.561C276.699 235.998 276.359 235.588 275.914 235.33C275.469 235.061 274.93 234.926 274.297 234.926H271.889Z" fill="black"/>
<path d="M7.15625 257.641H11.3047L11 267.133C10.9219 269.539 10.6875 271.617 10.2969 273.367C9.90625 275.117 9.40625 276.609 8.79688 277.844C8.1875 279.062 7.5 280.086 6.73438 280.914C5.96875 281.742 5.17188 282.438 4.34375 283H2.32812L2.42188 279.461L3.24219 279.438C3.69531 278.828 4.125 278.203 4.53125 277.562C4.9375 276.906 5.30469 276.133 5.63281 275.242C5.96094 274.336 6.22656 273.234 6.42969 271.938C6.64844 270.625 6.78906 269.023 6.85156 267.133L7.15625 257.641ZM8.11719 257.641H21.3125V283H17.1641V261.648H8.11719V257.641ZM1.53125 279.438H24.2656V290.477H20.1172V283H5.67969V290.477H1.50781L1.53125 279.438ZM28.1562 271.539V269.125C28.1562 267.156 28.4062 265.43 28.9062 263.945C29.4062 262.445 30.1016 261.195 30.9922 260.195C31.8828 259.195 32.9219 258.445 34.1094 257.945C35.2969 257.43 36.5703 257.172 37.9297 257.172C39.3203 257.172 40.6094 257.43 41.7969 257.945C42.9844 258.445 44.0234 259.195 44.9141 260.195C45.8203 261.195 46.5234 262.445 47.0234 263.945C47.5234 265.43 47.7734 267.156 47.7734 269.125V271.539C47.7734 273.508 47.5234 275.242 47.0234 276.742C46.5234 278.227 45.8281 279.469 44.9375 280.469C44.0469 281.469 43.0078 282.219 41.8203 282.719C40.6328 283.219 39.3516 283.469 37.9766 283.469C36.6016 283.469 35.3203 283.219 34.1328 282.719C32.9453 282.219 31.8984 281.469 30.9922 280.469C30.1016 279.469 29.4062 278.227 28.9062 276.742C28.4062 275.242 28.1562 273.508 28.1562 271.539ZM32.3047 269.125V271.539C32.3047 272.93 32.4453 274.148 32.7266 275.195C33.0078 276.242 33.4062 277.117 33.9219 277.82C34.4375 278.523 35.0391 279.055 35.7266 279.414C36.4141 279.758 37.1641 279.93 37.9766 279.93C38.9141 279.93 39.7344 279.758 40.4375 279.414C41.1562 279.055 41.75 278.523 42.2188 277.82C42.6875 277.117 43.0391 276.242 43.2734 275.195C43.5078 274.148 43.625 272.93 43.625 271.539V269.125C43.625 267.734 43.4844 266.523 43.2031 265.492C42.9219 264.445 42.5234 263.57 42.0078 262.867C41.4922 262.148 40.8828 261.617 40.1797 261.273C39.4922 260.914 38.7422 260.734 37.9297 260.734C37.1328 260.734 36.3906 260.914 35.7031 261.273C35.0156 261.617 34.4141 262.148 33.8984 262.867C33.3984 263.57 33.0078 264.445 32.7266 265.492C32.4453 266.523 32.3047 267.734 32.3047 269.125Z" fill="black"/>
<path d="M101.453 23.5156V53.75H97.3047V18.6406H101.078L101.453 23.5156ZM115.633 30.1719V32.5391C115.633 34.5391 115.445 36.2891 115.07 37.7891C114.711 39.2734 114.172 40.5156 113.453 41.5156C112.75 42.5 111.883 43.2422 110.852 43.7422C109.82 44.2266 108.641 44.4688 107.312 44.4688C105.984 44.4688 104.828 44.2188 103.844 43.7188C102.875 43.2031 102.055 42.4609 101.383 41.4922C100.727 40.5234 100.203 39.3594 99.8125 38C99.4375 36.625 99.1797 35.0859 99.0391 33.3828V29.7734C99.1797 27.9766 99.4375 26.3672 99.8125 24.9453C100.188 23.5078 100.703 22.2891 101.359 21.2891C102.031 20.2734 102.852 19.5 103.82 18.9688C104.805 18.4375 105.953 18.1719 107.266 18.1719C108.625 18.1719 109.82 18.4062 110.852 18.875C111.898 19.3438 112.773 20.0703 113.477 21.0547C114.195 22.0234 114.734 23.2656 115.094 24.7812C115.453 26.2812 115.633 28.0781 115.633 30.1719ZM111.484 32.5391V30.1719C111.484 28.7656 111.375 27.5391 111.156 26.4922C110.953 25.4453 110.625 24.5781 110.172 23.8906C109.719 23.2031 109.148 22.6875 108.461 22.3438C107.773 22 106.945 21.8281 105.977 21.8281C105.148 21.8281 104.414 22 103.773 22.3438C103.148 22.6875 102.609 23.1562 102.156 23.75C101.703 24.3281 101.328 24.9922 101.031 25.7422C100.734 26.4766 100.516 27.2422 100.375 28.0391V35.1406C100.641 36.1406 100.992 37.0859 101.43 37.9766C101.867 38.8516 102.453 39.5625 103.188 40.1094C103.938 40.6562 104.883 40.9297 106.023 40.9297C106.977 40.9297 107.797 40.7578 108.484 40.4141C109.172 40.0703 109.734 39.5547 110.172 38.8672C110.625 38.1641 110.953 37.2891 111.156 36.2422C111.375 35.1797 111.484 33.9453 111.484 32.5391ZM130.047 44.4688C128.531 44.4688 127.164 44.2422 125.945 43.7891C124.727 43.3359 123.688 42.6484 122.828 41.7266C121.969 40.7891 121.312 39.6094 120.859 38.1875C120.406 36.7656 120.18 35.0859 120.18 33.1484V30.2891C120.18 28.0547 120.438 26.1641 120.953 24.6172C121.484 23.0703 122.195 21.8281 123.086 20.8906C123.977 19.9375 124.984 19.25 126.109 18.8281C127.234 18.3906 128.391 18.1719 129.578 18.1719C131.172 18.1719 132.531 18.4297 133.656 18.9453C134.781 19.4609 135.695 20.2266 136.398 21.2422C137.102 22.2578 137.617 23.5078 137.945 24.9922C138.289 26.4766 138.461 28.1875 138.461 30.125V32.5391H122.617V29H134.312V28.4141C134.25 27.1016 134.07 25.9453 133.773 24.9453C133.492 23.9453 133.023 23.1641 132.367 22.6016C131.711 22.0234 130.781 21.7344 129.578 21.7344C128.812 21.7344 128.102 21.8672 127.445 22.1328C126.805 22.3828 126.25 22.8281 125.781 23.4688C125.328 24.0938 124.969 24.9609 124.703 26.0703C124.453 27.1797 124.328 28.5859 124.328 30.2891V33.1484C124.328 34.5078 124.453 35.6797 124.703 36.6641C124.969 37.6328 125.352 38.4375 125.852 39.0781C126.367 39.7031 126.992 40.1719 127.727 40.4844C128.477 40.7812 129.328 40.9297 130.281 40.9297C131.672 40.9297 132.82 40.6641 133.727 40.1328C134.633 39.5859 135.422 38.8906 136.094 38.0469L138.273 40.6484C137.82 41.2891 137.227 41.9062 136.492 42.5C135.773 43.0781 134.883 43.5547 133.82 43.9297C132.773 44.2891 131.516 44.4688 130.047 44.4688ZM147.977 37.1328L157.164 18.6406H161.312V44H157.164V25.5078L147.977 44H143.852V18.6406H147.977V37.1328ZM156.062 9.45312H159.578C159.578 10.6719 159.297 11.7578 158.734 12.7109C158.172 13.6484 157.367 14.3828 156.32 14.9141C155.273 15.4453 154.031 15.7109 152.594 15.7109C150.422 15.7109 148.703 15.1328 147.438 13.9766C146.188 12.8047 145.562 11.2969 145.562 9.45312H149.078C149.078 10.375 149.344 11.1875 149.875 11.8906C150.406 12.5938 151.312 12.9453 152.594 12.9453C153.844 12.9453 154.734 12.5938 155.266 11.8906C155.797 11.1875 156.062 10.375 156.062 9.45312ZM176.734 40.9297C177.562 40.9297 178.312 40.7656 178.984 40.4375C179.672 40.0938 180.234 39.5625 180.672 38.8438C181.109 38.1094 181.359 37.1562 181.422 35.9844H185.312C185.25 37.6719 184.82 39.1562 184.023 40.4375C183.242 41.7031 182.211 42.6953 180.93 43.4141C179.664 44.1172 178.266 44.4688 176.734 44.4688C175.094 44.4688 173.664 44.2031 172.445 43.6719C171.242 43.1406 170.242 42.375 169.445 41.375C168.664 40.3594 168.078 39.1328 167.688 37.6953C167.297 36.2422 167.102 34.5938 167.102 32.75V29.8906C167.102 28.0469 167.297 26.4062 167.688 24.9688C168.078 23.5156 168.664 22.2891 169.445 21.2891C170.242 20.2734 171.242 19.5 172.445 18.9688C173.664 18.4375 175.094 18.1719 176.734 18.1719C178.453 18.1719 179.938 18.5391 181.188 19.2734C182.453 19.9922 183.438 21.0391 184.141 22.4141C184.859 23.7734 185.25 25.4219 185.312 27.3594H181.422C181.359 26.1094 181.133 25.0703 180.742 24.2422C180.352 23.3984 179.82 22.7734 179.148 22.3672C178.477 21.9453 177.672 21.7344 176.734 21.7344C175.641 21.7344 174.734 21.9297 174.016 22.3203C173.312 22.6953 172.758 23.2422 172.352 23.9609C171.945 24.6797 171.656 25.5391 171.484 26.5391C171.328 27.5391 171.25 28.6562 171.25 29.8906V32.75C171.25 33.9844 171.328 35.1094 171.484 36.125C171.656 37.125 171.938 37.9844 172.328 38.7031C172.734 39.4219 173.297 39.9766 174.016 40.3672C174.734 40.7422 175.641 40.9297 176.734 40.9297Z" fill="black"/>
</svg>
