<?xml version="1.0" encoding="utf-8"?>
<!-- Generator: Adobe Illustrator 25.2.0, SVG Export Plug-In . SVG Version: 6.00 Build 0)  -->
<svg version="1.1" id="Слой_1" xmlns="http://www.w3.org/2000/svg" xmlns:xlink="http://www.w3.org/1999/xlink" x="0px" y="0px"
	 viewBox="0 0 150 150" style="enable-background:new 0 0 150 150;" xml:space="preserve">
<style type="text/css">
	.st0{fill:#F0801B;}
	.st1{fill:#FFFFFF;}
	.st2{font-family:'MyriadPro-Regular';}
	.st3{font-size:48px;}
</style>
<g>
	<ellipse class="st0" cx="75.2" cy="77.4" rx="68.3" ry="68.4"/>
	<g>
		<g>
			<g>
				<path class="st0" d="M112.2,15.4c3.3,1.9,6.4,4.1,9.4,6.5s5.6,5.1,8.1,7.9s4.7,5.8,6.6,8.9c1.9,3.1,3.7,6.2,5.1,9.5
					c-2.3-5.1-5.1-10-8.5-14.4c2.5,3.3,4.6,6.6,6.3,10.1c0.4,0.9,0.9,1.7,1.3,2.6c0.4,0.9,0.8,1.8,1.2,2.7c0.3,0.9,0.7,1.9,1,2.8
					c0.3,1,0.6,2,0.9,3c-0.3-0.6-0.6-1.4-0.9-2.2c-0.3-0.8-0.7-1.7-1.1-2.6c-0.3-0.9-0.7-1.7-1.1-2.3c-0.3-0.7-0.6-1.2-0.9-1.4
					c-4.3-9.1-10.6-17.4-18.2-24.1c-3.8-3.3-7.9-6.3-12.3-8.8s-9-4.5-13.8-6c3.9,0.7,6.9,2,9.5,3.4c0.6,0.4,1.3,0.7,1.9,1
					c0.6,0.4,1.2,0.7,1.8,1.1l0.9,0.5l0.9,0.6C111,14.7,111.6,15.1,112.2,15.4z"/>
				<path class="st0" d="M146.7,77.4c0-1-0.1-2-0.1-3c0-0.5,0-1-0.1-1.5c0-0.5-0.1-1-0.1-1.5c0,0.5,0.1,1,0.1,1.5
					c0,0.3,0,0.5,0.1,0.8c0,0.3,0,0.5,0,0.8C146.7,75.5,146.7,76.4,146.7,77.4z"/>
				<path class="st0" d="M8.7,61l-0.3,1.6c-0.1,0.5-0.2,1.1-0.3,1.6c-0.2,1.1-0.4,2.2-0.5,3.2c0.1-1.1,0.3-2.2,0.5-3.2
					c0.1-0.5,0.2-1.1,0.3-1.6L8.7,61z"/>
				<path class="st0" d="M87,8.3c-1.2-0.2-2.4-0.2-3.6-0.3C74.4,6.8,65,7.4,56,9.8c4.9-1.4,10.1-2.3,15.4-2.6
					C76.6,6.9,82,7.2,87,8.3z"/>
				<path class="st0" d="M96.3,11.4c4.4,1.4,8.6,3.3,12.5,5.6s7.5,5,10.7,7.9C113.1,19.1,105.1,14.3,96.3,11.4z"/>
				<path class="st0" d="M28.5,120.9c0-0.1,0.2,0,0.4,0.1c0.2,0.2,0.4,0.3,0.5,0.4c2.3,2.5,4.8,4.9,7.4,7c-0.7-0.5-1.4-0.9-2.1-1.4
					c-0.7-0.6-1.2-1.2-1.7-1.6c-0.5-0.5-0.9-0.9-1.3-1.3c-0.4-0.4-0.8-0.9-1.4-1.4C29.8,122.2,29.2,121.6,28.5,120.9z"/>
				<path class="st0" d="M9.4,58.6c0-0.1,0-0.2,0-0.2c0.2-0.7,0.4-1.5,0.6-2.2c0-0.1,0.1-0.2,0.1-0.3C9.8,56.8,9.6,57.7,9.4,58.6z"
					/>
				<path class="st0" d="M25.6,117.6c0.1-0.1,0.1-0.3,0-0.6c0.6,0.8,1.2,1.5,1.8,2.3c0.6,0.8,1.2,1.5,1.9,2.2
					c-0.2-0.1-0.4-0.3-0.5-0.4c-0.2-0.2-0.5-0.5-0.8-0.8s-0.5-0.6-0.8-0.9C26.7,118.7,26.1,118.1,25.6,117.6z"/>
				<path class="st0" d="M12.5,77c0-1.2-0.2-2.3-0.3-2.9c0.4-3.1,0.9-6.2,1.8-9.8c0.1-0.6,0.3-1.8,0.4-2.9c0.3-0.6,0.6-1.3,0.9-2
					c-2.4,7.8-3.3,16.2-2.5,24.7c-0.1-1.1-0.2-2.3-0.3-3.5C12.5,79.5,12.5,78.3,12.5,77z"/>
				<path class="st0" d="M141.9,79.1c0,2.9-0.3,5.9-0.8,8.9c-0.3,1.5-0.5,3-0.9,4.5c-0.3,1.5-0.8,3-1.2,4.5
					c-1.9,5.9-4.5,11.5-7.2,16.4c1.9-2.7,3.7-5.9,5.2-9.2c1.5-3.3,2.8-6.7,3.7-9.8c1.9-6.3,2.5-11.4,3.2-12.4
					c0.4-0.5,0.4,0.4,0.4,2.3c-0.1,0.9-0.2,2.1-0.4,3.4c-0.1,0.6-0.2,1.3-0.4,2c-0.1,0.7-0.3,1.5-0.5,2.2c-0.7,3.1-1.8,6.4-3,9.6
					c-1.3,3.2-2.7,6.1-4,8.5c0.8-1.2,0.8-1.2,1.5-2.4c-0.4,0.6-0.8,1.2-1.1,1.8c-0.2,0.3-0.3,0.6-0.5,0.9s-0.3,0.6-0.4,0.9
					c0.4-0.6,0.9-1.3,1.4-2.1c0.5-0.8,1-1.7,1.5-2.5c0.5-0.9,0.9-1.7,1.3-2.4c0.4-0.7,0.7-1.3,0.9-1.6c0,0-0.2,0.6-0.3,1.2
					c-0.1,0.3-0.2,0.6-0.2,0.9c-0.1,0.2-0.1,0.4-0.1,0.4c1.9-3.2,3.9-8.2,5.3-13.4c0.3-1.3,0.6-2.6,0.9-3.9c0.1-0.6,0.2-1.3,0.4-1.9
					c0.1-0.6,0.2-1.3,0.3-1.9c0.2-1.2,0.4-2.4,0.5-3.5s0.3-2.2,0.4-3.1c-0.8,9.2-3,19.1-7.5,28.6c-2.2,4.7-5,9.3-8.3,13.7
					c-3.3,4.3-7.2,8.4-11.5,12s-9.1,6.7-14.1,9.3c-5.1,2.6-10.5,4.5-16.1,5.7c-5.6,1.3-11.3,1.8-16.9,1.7s-11.2-0.8-16.5-2.2
					c-5.9-1.5-11.6-3.7-16.9-6.5c-0.7-0.4-1.3-0.7-2-1.1c-0.6-0.4-1.3-0.8-1.9-1.1l-1-0.6l-0.9-0.6c-0.6-0.4-1.2-0.8-1.8-1.2
					c-2.4-1.7-4.7-3.5-6.9-5.4c-2.2-1.9-4.2-4-6.2-6.1c-1.9-2.2-3.7-4.3-5.4-6.7c-3.3-4.6-6.1-9.5-8.2-14.7
					c-0.2-0.5-0.4-1.1-0.6-1.7c-0.1-0.3-0.2-0.7-0.4-1c-0.1-0.4-0.2-0.7-0.3-1.1c-0.2-0.8-0.5-1.6-0.7-2.5C3.4,94.9,3.2,94,3,93
					c-0.8-3.9-1.3-8.2-1.5-11.8c-0.4-6.4,0-12.8,1.1-19.1l0.5-2.3c0.1-0.4,0.2-0.8,0.2-1.2l0.3-1.2l0.6-2.3l0.7-2.3l0.4-1.1l0.4-1.1
					l0.8-2.3l0.9-2.2L7.9,45l0.5-1.1l1.1-2.3l1.2-2.2c0.4-0.7,0.8-1.5,1.3-2.2s0.9-1.4,1.4-2.1c1.9-2.8,4-5.5,6.2-8
					c4.5-5,9.7-9.4,15.5-13C46.6,6.8,60.4,2.6,74.9,2.5c1.4,0,3,0.1,4.3,0.3s2.4,0.5,2.8,0.7s0.3,0.4-0.9,0.5c-0.6,0-1.4,0-2.5,0.1
					c-0.6,0-1.2,0-1.9,0c-0.7,0-1.5,0-2.4,0.1c-5.8,0.3-11.5,1.2-17.1,2.7s-11,3.7-16.2,6.4c0.3-0.2,0.8-0.6,1.4-0.9
					c0.3-0.2,0.7-0.4,1.1-0.6c0.4-0.2,0.8-0.4,1.2-0.6c0.9-0.4,1.7-0.8,2.6-1.2c0.8-0.4,1.6-0.7,2.2-1c-4.1,1.4-7.7,3.1-11.1,5
					s-6.7,4.1-9.9,6.9c4.4-3.6,9.1-6.7,14.2-9.3c-6.3,3.2-12.6,7.4-18.1,12.7c-5.5,5.2-10.3,11.6-13.9,18.4c-1.3,2.5-2.7,4.8-4,7.5
					c-0.3,0.7-0.6,1.4-0.9,2.1C5.5,53,5.2,53.8,5,54.6c-0.3,0.8-0.5,1.7-0.7,2.6C4.1,58.1,3.9,59,3.8,60c1.3-4.9,3.1-9.7,5.4-14.2
					c2.3-4.6,5.1-8.9,8.3-12.9C24,24.7,32,18,41.1,13.2L41,13.3c4-2.2,8.1-3.9,12.2-5.2s8.3-2.2,12.7-2.8c-0.7,0.1-1.4,0.2-2,0.3
					c-0.7,0.1-1.3,0.3-2,0.4c-1.3,0.2-2.6,0.6-3.8,0.8l2.4-0.5C61.2,6.2,62,6,62.8,5.9c1.6-0.3,3.2-0.4,4.7-0.6
					C70.7,5.1,73.9,5,77,5.1c3.2,0.1,6.3,0.4,9.4,0.9c1.6,0.3,3.2,0.6,4.7,1c0.8,0.2,1.5,0.4,2.3,0.6l2.3,0.7
					c-4.3-1.2-8.8-2-13.3-2.3c-4.5-0.4-9.1-0.3-13.7,0.2c-9.1,0.9-18.2,3.6-26.5,7.9C34,18.4,26.6,24.3,20.6,31.4
					c-5.9,7.1-10.4,15.3-13,23.8c1.9-4.7,4.1-10,7.1-14.8c2.9-4.8,6.4-9.2,9.7-12c-2.8,2.9-5.4,6.1-7.7,9.4c-2.3,3.4-4.3,6.9-6,10.6
					C9,52.1,7.6,56,6.6,60c-1.1,4-1.7,8.1-2.1,12.3c0-0.6,0-1.2,0.1-1.8c0-0.6,0.1-1.2,0.1-1.8c-0.9,5.1-1,10.5-0.4,15.9
					C4.8,89.8,6,95.1,7.6,100c0.3,0.9,0.5,1.8,0.9,2.6c-0.3-0.9-0.6-1.8-0.9-2.6c-2.9-9.1-3.9-18.6-3.1-27.8
					c-0.1,4.2-0.1,8.7,0.4,14c-0.1-1.4-0.1-3.2-0.2-5.1c0-1.9,0-4,0.1-6.1c0.2-5.4,1-10.9,2.5-16.1C5.2,67,4.7,75.3,5.6,82.8
					c-0.3-5.6,0-11.3,1-16.9L7,63.8c0.1-0.7,0.3-1.4,0.5-2.1C7.7,61,7.8,60.3,8,59.6l0.6-2l0.3-1l0.3-1l0.7-2c0.3-0.7,0.5-1.3,0.8-2
					c0.3-0.6,0.5-1.3,0.8-1.9c-1.2,2.8-2.2,5.7-3,8.7c-0.4,1.5-0.7,3-1.1,4.5c-0.2,0.7-0.3,1.5-0.4,2.3c0,0.8-0.1,1.5-0.2,2.3
					C5.2,77.6,5.9,88.3,9,98.4c-0.1-0.4-0.3-0.8-0.4-1.1c0.2,0.8,0.5,1.5,0.7,2.3c1.3,3.9,2.9,7.7,4.9,11.4c1.8,3.3,4,6.2,6.4,9
					c0.4,0.5,0.8,1,1.1,1.4c-0.8-0.8-1.3-1.2,0.1,0.6c3,3.8,6.6,7.3,10.7,10.4c1,0.8,2.1,1.5,3.2,2.3c1.1,0.8,2.2,1.4,3.3,2.2
					c2.3,1.4,4.7,2.7,7.1,4c0.7,0.3,1.4,0.7,2.1,1c0.8,0.3,1.6,0.6,2.5,1c1.8,0.6,3.7,1.2,5.8,1.7c1.1,0.4,1.7,0.5,2.2,0.5
					c0.9,0.2,1.8,0.4,2.7,0.5c1.1,0.2,2.2,0.4,3.3,0.5s2.2,0.3,3.3,0.3c-1.1-0.1-2.2-0.2-3.3-0.4c-1.1-0.1-2.2-0.3-3.3-0.5
					c-0.8-0.1-1.6-0.4-2.5-0.5c0.6,0,1.2,0.1,2.4,0.3c-7.5-1.6-15-4.4-21.7-8.5c-6.8-4.1-12.9-9.4-18-15.5c0.7,0.7,1.7,1.6,2.1,2
					l-1.6-1.7c-0.6-0.6-1.1-1.2-1.6-1.8c-3.2-4.1-6-8.5-8.2-13.2c0.3,0.7,0.7,1.3,1.1,1.9c0.4,0.6,0.7,1.2,1.1,1.7
					c-3.5-6.5-6-13.5-7.3-20.8c-0.7-3.6-1.1-7.3-1.1-11c0-0.5,0-0.9,0-1.4v-1.4c0-0.9,0-1.9,0.1-2.8L6.4,70l0.3-2.8
					c2.1-13.8,8.5-26.7,17.9-36.6c-5.2,5.2-9.8,11.6-13,18.9c2.1-4.8,4.7-9.4,7.8-13.7s6.7-8.1,10.7-11.6c1-0.9,2-1.7,3.1-2.5
					c1-0.8,2.1-1.5,3.2-2.3c2.2-1.4,4.5-2.8,6.8-4c4.7-2.4,9.6-4.2,14.7-5.4c-0.9,0.4-1.8,0.7-2.8,1.1c-1,0.4-2,0.9-2.9,1.3
					c-0.2,0.1-0.5,0.2-0.7,0.3s-0.4,0.2-0.7,0.3c-0.4,0.2-0.8,0.5-1.2,0.7s-0.7,0.4-1.1,0.6c-0.3,0.2-0.6,0.4-0.8,0.6
					c0.1,0.1,0.5-0.1,1-0.3c0.6-0.2,1.2-0.4,1.8-0.6c1.1-0.4,1.8-0.5,0,0.2c-1.6,0.7-3.1,1.5-4.5,2.2c-0.7,0.4-1.4,0.8-2.1,1.1
					c-0.3,0.2-0.7,0.4-1,0.6s-0.6,0.4-1,0.6c-0.6,0.4-1.3,0.8-1.9,1.1c-0.6,0.4-1.2,0.8-1.7,1.2c-0.3,0.2-0.6,0.4-0.8,0.6
					c-0.3,0.2-0.5,0.4-0.8,0.6c-0.5,0.4-1,0.8-1.5,1.1c-3.9,3-6.5,5.9-7.9,8.5c-0.1,0.3,0.5-0.2,1.5-0.9c0.5-0.3,1.1-0.7,1.7-1.2
					c0.3-0.2,0.6-0.4,0.9-0.7c0.3-0.2,0.7-0.4,1-0.6c0.6-0.4,1.3-0.8,1.8-1.1c0.6-0.3,1-0.5,1.4-0.7c0.7-0.3,0.8-0.2-0.1,0.6
					c-3,2.6-8.2,7.5-12.5,13.9c-0.3,0.4-0.6,0.9-0.9,1.4s-0.6,0.9-0.9,1.4c-0.6,1-1.2,2-1.8,3c-0.2,0.2-0.3,0.7-0.5,1.3
					c-1.9,3.7-3.3,7.5-4.3,10.8c-0.2,0.9-0.5,1.7-0.7,2.5s-0.4,1.6-0.5,2.3c-0.2,0.7-0.3,1.4-0.4,2c-0.1,0.6-0.3,1.2-0.3,1.8
					c-0.1,0.8-0.2,1.6-0.4,2.4c-0.1,0.8-0.2,1.6-0.3,2.4c-0.1,0.4-0.2,0.8-0.2,1.2c-0.1,0.4-0.1,0.7-0.2,0.9c0,0.5,0.1,1,0.1,1.5
					s0,1,0.1,1.5c0,4.3,0.4,8.6,1.2,12.7l0.3,1.7l0.1,0.9l0.2,0.9c0.3,1.1,0.5,2.3,0.8,3.4c0.1-0.1,0.1-0.5,0.3-0.1
					c0.8,2.5,1.8,5,2.9,7.4c1.2,2.4,2.4,4.7,3.8,6.9c0.3,0.5,0.5,0.9,0.8,1.4c0.3,0.4,0.5,0.9,0.8,1.3c0.2,0.4,0.5,0.9,0.7,1.3
					s0.5,0.8,0.7,1.2c2.1,2,5.3,5.5,9.2,8.9s8.6,6.5,12.7,8.5l0,0c4.1,2.1,8.5,3.8,13,4.9c0.7,0.3,1.4,0.5,2.1,0.8
					c1.2,0.1,2.4,0.3,3,0.3c3.7,0.7,6.9,1.1,10.1,1.3c0.6-0.1,1.7-0.4,2.9-0.4c0.6,0,1.2,0,1.8-0.1c0.6,0,1.2-0.1,1.8-0.1
					c1.2-0.1,2.4-0.3,3.5-0.5c0.7-0.1,1.4-0.2,2-0.3l1-0.2l1-0.2c0.7-0.1,1.4-0.3,2-0.4c0.7-0.2,1.3-0.4,2-0.5
					c9.1-2.5,17.5-6.9,24.7-12.9c0.3-0.1,0.4-0.1,0.6,0c0.5-0.5,1.1-1.2,1.7-1.7c0.3-0.3,0.6-0.6,0.9-0.9s0.5-0.6,0.7-0.8
					c-0.1,0.2-0.2,0.4-0.1,0.4c0.7-0.8,1.3-1.4,1.8-2s0.9-1,1.3-1.4c0.2-0.2,0.4-0.4,0.6-0.7c0.2-0.2,0.4-0.5,0.7-0.7
					c0.5-0.5,1-1.1,1.6-1.8c0.5-0.7,0.9-1.5,1.3-2.2c0.3-0.3,0.5-0.7,0.7-1c2.9-3.3,4.8-7.3,6.6-11.9c1.9-4.5,3.4-9.2,4.2-14
					c0.2-1,0.3-1.8,0.5-2.5s0.2-1.4,0.4-1.9c0.1-0.6,0.2-1.2,0.4-1.7C141.7,80.3,141.8,79.7,141.9,79.1z"/>
				<path class="st0" d="M37.8,129.3c3.5,2.7,7.3,5.1,11.3,7C44.8,134.3,40.9,132.3,37.8,129.3z"/>
				<path class="st0" d="M38.7,26c0.8-0.4,1.6-0.8,2.5-1.3c0.9-0.4,1.7-0.9,2.7-1.4C34.3,28.9,26.2,37,20.7,46.8l0,0
					c2.1-4,5.4-8.5,8.9-12.1C33,31,36.6,28,38.7,26z"/>
				<path class="st0" d="M28.9,121.1c0.1,0.1,0.3,0.2,0.5,0.4l0,0C29.2,121.4,29,121.2,28.9,121.1z"/>
				<path class="st0" d="M56.3,11.6c0.4-0.1,0.8-0.2,1.1-0.3L55.3,12c-0.7,0.2-1.4,0.5-2.1,0.7c-1.4,0.5-2.8,1.1-4.1,1.6
					C51.2,13.3,53.7,12.3,56.3,11.6z"/>
				<path class="st0" d="M87.9,10.5c0.4,0.1,0.7,0.1,1.1,0.2l1.1,0.2c0.7,0.2,1.5,0.3,2.2,0.5c1.5,0.4,2.9,0.8,4.4,1.3
					c2.9,0.9,5.7,2.1,8.4,3.4c7,3.5,13.1,8.3,17.9,13.7C113.7,20,101.4,13.2,87.9,10.5z"/>
				<path class="st0" d="M58.1,17.1c0.6-0.1,1.1-0.3,1.7-0.4c0.6-0.1,1.1-0.2,1.7-0.3c1.1-0.2,2.3-0.3,3.4-0.5
					c-1.1,0.2-2.3,0.4-3.4,0.6L59.8,17c-0.6,0.1-1.1,0.3-1.7,0.4C58.5,17.2,58.1,17.2,58.1,17.1z"/>
				<path class="st0" d="M34.3,22.9c0.5-0.4,1-0.7,1.5-1.1c-1.2,0.9-2.4,2-3.5,3C32.7,24.4,33.7,23.5,34.3,22.9z"/>
				<path class="st0" d="M82.4,15.8c-0.8-0.1-1.7-0.2-2.5-0.3s-1.7-0.2-2.5-0.2c1-0.1,2,0,3-0.1C80.9,15.5,81.6,15.6,82.4,15.8z"/>
				<path class="st0" d="M107.1,24.2c1,0.6,1.9,1.2,2.9,1.9c0.9,0.7,1.8,1.3,2.6,2c-2.2-1.6-4.4-3.1-6.8-4.4
					C106.4,23.9,106.9,24,107.1,24.2z"/>
			</g>
		</g>
	</g>
</g>
<g>
	<g>
		<g>
			<g>
				<g>
					<path class="st1" d="M41.6,133.4c-5.9-3.5-11.3-8-15.7-13.2c-2.2-2.6-4.3-5.3-6-8.1c-1.7-2.8-3.3-5.6-4.5-8.6
						c2,4.6,4.6,9,7.6,13c-2.3-3-4.1-6-5.7-9.1c-0.4-0.8-0.8-1.6-1.2-2.4c-0.4-0.8-0.7-1.6-1.1-2.4c-0.3-0.8-0.7-1.7-1-2.6
						s-0.6-1.8-0.9-2.7c0.2,0.5,0.5,1.2,0.7,2c0.3,0.8,0.6,1.6,0.9,2.4c0.3,0.8,0.6,1.5,0.9,2.1c0.3,0.6,0.5,1.1,0.7,1.4
						C20.2,113.5,26,121,33,127c6.9,6,15.1,10.4,23.8,13c-3.5-0.9-6.2-2-8.5-3.1C45.8,135.9,43.8,134.7,41.6,133.4z"/>
					<path class="st1" d="M10,77.4c0,0.9,0,1.8,0.1,2.7c0,0.5,0,0.9,0.1,1.4c0,0.4,0.1,0.9,0.1,1.3C10.1,80.9,10.1,79,10,77.4z"/>
					<path class="st1" d="M137.7,92.8l0.3-1.5c0.1-0.5,0.2-1,0.3-1.5c0.2-1,0.4-2,0.5-3c-0.1,1-0.3,2-0.5,3c-0.1,0.5-0.2,1-0.3,1.5
						L137.7,92.8z"/>
					<path class="st1" d="M64.3,141.3c1.1,0.2,2.2,0.3,3.3,0.4c8.3,1,17,0.4,25.4-1.9c-4.5,1.3-9.4,2.1-14.2,2.4
						C73.8,142.4,68.9,142.1,64.3,141.3z"/>
					<path class="st1" d="M55.5,138.9c-4.1-1.3-8-3-11.7-5.1s-7.1-4.5-10.2-7.2C39.7,131.9,47.2,136.3,55.5,138.9z"/>
					<path class="st1" d="M121.4,34.2c0,0-0.1-0.1-0.3-0.2c-0.2-0.2-0.3-0.3-0.5-0.5c-2.3-2.5-4.8-4.7-7.5-6.8c0.7,0.5,1.3,1,2,1.5
						c0.7,0.6,1.3,1.1,1.8,1.5s0.9,0.8,1.3,1.3c0.4,0.4,0.9,0.8,1.4,1.3C120.2,32.9,120.7,33.5,121.4,34.2z"/>
					<path class="st1" d="M137.1,95c0,0.1,0,0.1-0.1,0.2c-0.2,0.7-0.4,1.4-0.6,2c0,0.1-0.1,0.2-0.1,0.2
						C136.6,96.7,136.9,95.9,137.1,95z"/>
					<path class="st1" d="M124.3,37.5c0,0.1,0,0.2,0.2,0.4c-0.6-0.8-1.2-1.5-1.8-2.2c-0.6-0.7-1.3-1.4-1.9-2.1
						c0.2,0.2,0.3,0.3,0.4,0.4c0.2,0.2,0.5,0.5,0.7,0.8c0.3,0.3,0.5,0.6,0.8,0.9C123.2,36.3,123.8,36.9,124.3,37.5z"/>
					<path class="st1" d="M138.1,77.7c0,1.2,0,2.3,0,2.9c-0.2,3.1-0.6,6.3-1.4,9.9c-0.1,0.6-0.4,1.7-0.6,2.9
						c-0.2,0.7-0.4,1.4-0.7,2.1c2.3-7.8,3.2-16.3,2.3-24.8c0.1,1.1,0.2,2.3,0.3,3.5C138.1,75.2,138.1,76.4,138.1,77.7z"/>
					<path class="st1" d="M11.3,75.7c0-2.8,0.3-5.6,0.8-8.5c0.3-1.4,0.5-2.9,0.9-4.3c0.3-1.4,0.7-2.9,1.2-4.3
						c1.8-5.7,4.3-11,7.1-15.6c-1.7,2.7-3.4,5.7-4.8,8.9C15,55,13.9,58.2,13,61.2c-1.6,6-2,10.9-2.2,11.8c-0.1,0.5-0.1-0.4,0-2.1
						c0.1-0.8,0.2-1.9,0.4-3.1c0.1-0.6,0.2-1.2,0.3-1.9c0.1-0.7,0.2-1.4,0.4-2.1c0.6-2.9,1.6-6,2.7-9s2.5-5.8,3.6-8
						C17.7,48,17.7,48,17,49.2c0.3-0.6,0.6-1.2,0.9-1.7c0.1-0.3,0.3-0.6,0.4-0.8c0.1-0.3,0.3-0.5,0.4-0.8c-0.4,0.6-0.7,1.3-1.2,2
						c-0.4,0.8-0.9,1.6-1.2,2.4c-0.4,0.8-0.8,1.6-1.1,2.3s-0.5,1.2-0.7,1.6c0,0,0.2-0.6,0.4-1.1c0.1-0.3,0.2-0.6,0.3-0.8
						s0.1-0.3,0.1-0.3c-1.4,3.1-3.1,7.7-4.2,12.4c-1.1,4.8-1.4,9.7-1.6,13.1c0.2-8.3,1.9-17.4,5.9-26.2c2-4.4,4.5-8.6,7.4-12.7
						c3-4,6.5-7.7,10.5-11c3.9-3.3,8.4-6.2,13-8.5c4.7-2.3,9.7-4,14.8-5.2s10.3-1.6,15.5-1.5s10.3,0.8,15.1,2.1
						c5.4,1.4,10.6,3.5,15.3,6.2c0.6,0.3,1.2,0.7,1.8,1c0.6,0.4,1.1,0.7,1.7,1.1l0.9,0.5l0.8,0.6c0.5,0.4,1.1,0.8,1.6,1.1
						c2.1,1.6,4.2,3.3,6.1,5.1c1.9,1.8,3.7,3.7,5.4,5.6c1.6,2,3.2,4,4.6,6.2c2.8,4.2,5.1,8.7,6.8,13.4c0.2,0.4,0.3,1,0.5,1.5
						c0.1,0.3,0.2,0.6,0.3,0.9c0.1,0.3,0.2,0.7,0.3,1c0.2,0.7,0.4,1.5,0.6,2.3c0.2,0.8,0.4,1.6,0.6,2.5c0.7,3.4,1.2,7.3,1.4,10.5
						c0.3,5.7-0.1,11.4-1.2,16.9l-0.5,2.1c-0.1,0.3-0.1,0.7-0.2,1l-0.3,1l-0.6,2l-0.7,2l-0.3,1l-0.4,1l-0.8,2l-0.8,1.9l-0.4,1
						l-0.5,0.9c-5.3,10.8-13.5,19.9-23.7,26.3c-10.1,6.4-22.3,10.2-35.1,10.2c-1.3,0-2.7-0.1-3.8-0.1c-1.2-0.1-2.1-0.2-2.5-0.3
						s-0.3-0.1,0.8-0.1c0.5,0,1.2,0.1,2.2,0.1c0.5,0,1.1,0,1.7,0s1.3,0,2.1,0c5.2-0.1,10.4-0.8,15.4-2.1c5.1-1.3,10-3.2,14.6-5.7
						c-0.3,0.2-0.7,0.4-1.3,0.7c-0.3,0.2-0.6,0.3-1,0.5s-0.7,0.3-1.1,0.5c-0.8,0.3-1.6,0.7-2.3,1c-0.8,0.3-1.4,0.6-2,0.8
						c3.6-1.3,6.8-2.9,9.9-4.6c3-1.8,5.9-3.7,8.9-6.2c-3.9,3.2-8.2,6-12.7,8.3c5.7-2.8,11.2-6.6,16.2-11.3c5-4.7,9.2-10.3,12.5-16.4
						c1.2-2.3,2.3-4.4,3.3-6.8c0.3-0.6,0.5-1.2,0.8-1.9c0.2-0.7,0.5-1.3,0.7-2.1c0.3-0.7,0.5-1.5,0.7-2.3s0.4-1.6,0.6-2.5
						c-1.1,4.4-2.7,8.7-4.7,12.8c-2,4.1-4.5,8-7.3,11.7c-5.7,7.3-12.9,13.4-21.1,17.7h0.1c-3.6,2-7.3,3.5-11,4.7s-7.5,2-11.4,2.5
						c0.6-0.1,1.2-0.1,1.8-0.3c0.6-0.1,1.2-0.2,1.8-0.3c1.2-0.2,2.3-0.5,3.4-0.7l-2.1,0.5c-0.7,0.1-1.4,0.2-2.1,0.4
						c-1.4,0.3-2.9,0.4-4.3,0.6c-2.9,0.2-5.7,0.4-8.6,0.3c-2.9,0-5.7-0.4-8.5-0.8c-1.4-0.3-2.8-0.5-4.2-0.8
						c-0.7-0.2-1.4-0.3-2.1-0.5l-2.1-0.6c3.9,1.1,7.9,1.9,12,2.3c4.1,0.4,8.3,0.4,12.5,0c8.3-0.8,16.7-3.2,24.2-7.1
						c7.5-3.9,14.3-9.4,19.7-15.8c5.4-6.5,9.5-13.9,12-21.7c-1.5,4.3-3.6,9.2-6.3,13.6s-5.9,8.4-8.7,11.1c2.6-2.7,4.9-5.6,7-8.7
						c2.1-3.1,3.9-6.4,5.5-9.8c1.5-3.4,2.8-7,3.7-10.7s1.5-7.4,1.8-11.3c0,0.6-0.1,1.1-0.1,1.7s-0.1,1.1-0.2,1.7
						c0.6-4.7,0.7-9.6,0.2-14.5s-1.6-9.7-3.1-14.2c-0.3-0.8-0.5-1.6-0.8-2.4c0.3,0.8,0.6,1.6,0.8,2.4c2.7,8.3,3.7,17,3.1,25.4
						c0.2-3.9,0.2-8-0.4-12.9c0.2,1.3,0.2,2.9,0.4,4.7c0,1.8,0.1,3.7,0,5.6c-0.2,5-0.9,10-2.2,14.8c2-7.4,2.6-15.1,1.9-22.1
						c0.4,5.2,0.2,10.5-0.7,15.7s-2.4,10.3-4.5,15.1c1.1-2.6,2.1-5.3,2.9-8.1c0.4-1.4,0.7-2.8,1-4.2c0.2-0.7,0.3-1.4,0.4-2.1
						c0.1-0.7,0.3-1.4,0.3-2.1c1.4-9.5,0.7-19.4-2.3-28.8c0.1,0.4,0.2,0.7,0.3,1.1c-0.2-0.7-0.4-1.4-0.7-2.1
						c-1.2-3.6-2.8-7.2-4.6-10.6c-1.7-3.1-3.6-5.9-5.7-8.5c-0.4-0.5-0.7-0.9-1.1-1.4c0.7,0.8,1.1,1.2-0.3-0.4
						c-2.8-3.5-6.2-6.7-10-9.7c-0.9-0.8-2-1.4-2.9-2.2c-1-0.7-2.1-1.3-3.1-2c-2.1-1.3-4.4-2.5-6.7-3.6c-2.4-1.2-5.8-2.5-9.6-3.5
						c-1-0.3-1.6-0.4-2.1-0.5c-0.8-0.2-1.7-0.4-2.5-0.5c-1-0.2-2.1-0.4-3.1-0.5s-2.1-0.3-3.1-0.4c1,0.1,2,0.2,3.1,0.4
						c1,0.1,2.1,0.3,3.1,0.5c0.8,0.1,1.5,0.3,2.3,0.5c-0.5-0.1-1.1-0.2-2.2-0.4c7,1.4,14,4,20.3,7.8c6.3,3.8,12.1,8.7,16.9,14.5
						c-0.6-0.7-1.5-1.6-1.8-2l1.5,1.6c0.5,0.5,0.9,1.1,1.4,1.7c3,3.8,5.6,7.9,7.6,12.3c-0.3-0.7-0.6-1.3-0.9-1.8
						c-0.3-0.6-0.6-1.1-0.9-1.6c3.3,6.1,5.6,12.6,6.8,19.5c0.6,3.4,1,6.9,1,10.3c0,0.4,0,0.9,0,1.3v1.3c0,0.9,0,1.7-0.1,2.6
						l-0.2,2.6l-0.3,2.6c-1.9,12.9-7.7,25-16.4,34.4c4.7-5,8.9-11.1,11.8-17.9c-2,4.5-4.4,8.8-7.3,12.7c-2.9,4-6.3,7.5-10,10.7
						c-0.9,0.8-1.9,1.5-2.9,2.3c-1,0.7-2,1.4-3,2.1c-2.1,1.3-4.1,2.6-6.3,3.7c-4.4,2.2-9,4-13.7,5.2c0.8-0.3,1.8-0.6,2.7-0.8
						c0.9-0.3,1.9-0.7,2.8-1c0.5-0.2,0.9-0.3,1.3-0.5s0.8-0.4,1.2-0.5c0.4-0.2,0.7-0.3,1-0.5s0.6-0.3,0.8-0.4c0,0-0.4,0.2-0.9,0.4
						s-1.2,0.4-1.7,0.6c-1.1,0.4-1.7,0.6,0-0.1c1.5-0.6,3-1.3,4.4-1.9c0.7-0.4,1.4-0.7,2-1c0.3-0.2,0.7-0.3,1-0.5s0.6-0.4,0.9-0.5
						c0.6-0.4,1.2-0.7,1.8-1.1c0.6-0.4,1.1-0.7,1.7-1.1c0.3-0.2,0.5-0.4,0.8-0.5c0.3-0.2,0.5-0.4,0.8-0.5c0.5-0.4,1-0.7,1.5-1.1
						c3.8-2.8,6.4-5.5,8.1-7.6c0.2-0.2-0.4,0.3-1.2,1.1c-0.4,0.4-1,0.8-1.5,1.3c-0.3,0.2-0.6,0.5-0.8,0.7c-0.3,0.2-0.6,0.5-0.9,0.7
						c-0.6,0.5-1.1,0.9-1.6,1.3s-0.9,0.6-1.2,0.8c-0.6,0.4-0.6,0.4,0.3-0.4c3.1-2.5,8.4-7.3,12.6-13.6c0.3-0.4,0.6-0.9,0.9-1.4
						c0.3-0.5,0.6-0.9,0.9-1.4c0.6-1,1.2-2,1.8-3c0.1-0.3,0.3-0.7,0.6-1.3c1.9-3.7,3.3-7.5,4.3-10.9c0.2-0.9,0.5-1.7,0.7-2.5
						s0.4-1.6,0.5-2.3c0.2-0.7,0.3-1.4,0.4-2c0.1-0.6,0.2-1.2,0.3-1.8c0.1-0.8,0.2-1.6,0.3-2.4s0.1-1.6,0.2-2.4
						c0-0.4,0.1-0.8,0.1-1.2c0-0.4,0.1-0.7,0.1-1v-1.5c0-0.5,0-1,0-1.5c0-4.3-0.5-8.5-1.3-12.7c-0.5-2.3-1-4.6-1.8-6.8
						c0,0.1,0.1,0.4-0.1,0c-0.8-2.5-1.8-4.9-2.9-7.3c-1.2-2.3-2.4-4.7-3.8-6.9c-0.3-0.4-0.5-0.9-0.8-1.3c-0.3-0.4-0.6-0.8-0.8-1.2
						c-0.3-0.4-0.5-0.8-0.8-1.2s-0.5-0.7-0.8-1.1c-1.8-2.2-4.9-5.7-8.9-9.1c-3.9-3.4-8.6-6.4-12.7-8.4l0,0c-4.1-2.1-8.4-3.7-13-4.8
						c-0.7-0.2-1.5-0.4-2.1-0.6c-1.1-0.2-2.3-0.4-2.9-0.5c-3.7-0.6-6.8-0.9-10-1c-0.6,0-1.7,0.1-2.9,0.1c-0.6,0-1.2,0.1-1.8,0.1
						c-0.6,0-1.2,0.1-1.8,0.1c-1.2,0.1-2.3,0.3-3.5,0.4c-0.7,0.1-1.3,0.2-2,0.4l-1,0.2l-1,0.2c-0.7,0.2-1.3,0.3-2,0.5
						s-1.3,0.4-2,0.6c-9,2.5-17.2,7.1-24.1,13.1c-0.2,0.2-0.3,0.2-0.4,0.2c-0.5,0.5-1.1,1.1-1.7,1.7c-0.3,0.3-0.6,0.6-0.9,0.8
						c-0.3,0.3-0.5,0.5-0.7,0.8c0.2-0.2,0.3-0.3,0.2-0.3c-0.7,0.8-1.3,1.4-1.8,1.9s-0.9,1-1.3,1.4c-0.2,0.2-0.4,0.4-0.6,0.7
						c-0.2,0.2-0.4,0.5-0.6,0.7c-0.4,0.5-0.9,1.1-1.5,1.8c-0.5,0.7-0.9,1.4-1.4,2c-0.2,0.3-0.5,0.7-0.7,1c-2.5,3.5-4.4,7.3-6.2,11.7
						s-3,9-3.8,13.7c-0.1,0.9-0.2,1.7-0.3,2.4c-0.1,0.7-0.1,1.3-0.2,1.9c-0.1,0.6-0.1,1.1-0.2,1.7C11.3,74.5,11.3,75.1,11.3,75.7z"
						/>
					<path class="st1" d="M112.2,26c-3.5-2.6-7.4-4.8-11.4-6.7C105.1,21.3,108.8,23.4,112.2,26z"/>
					<path class="st1" d="M111.7,128.7c-0.7,0.5-1.5,1-2.3,1.5s-1.7,1-2.6,1.5c9.6-5.6,17.7-13.7,23.3-23.6l0,0
						c-2.2,4-5.4,8.5-8.9,12.2C117.6,124.1,114,127,111.7,128.7z"/>
					<path class="st1" d="M121.2,34c-0.1-0.1-0.3-0.3-0.4-0.4l0,0C120.8,33.6,121,33.8,121.2,34z"/>
					<path class="st1" d="M92.9,139.3c-0.4,0.1-0.7,0.2-1.1,0.3l2-0.6c0.7-0.2,1.3-0.4,2-0.7c1.3-0.4,2.6-1,3.9-1.5
						C97.7,137.7,95.4,138.6,92.9,139.3z"/>
					<path class="st1" d="M63.1,140.6c-0.4-0.1-0.7-0.1-1.1-0.2l-1-0.2c-0.7-0.2-1.4-0.3-2.1-0.5c-1.4-0.4-2.8-0.7-4.1-1.2
						c-2.7-0.9-5.4-2-7.9-3.2c-6.6-3.2-12.4-7.6-17.2-12.6C38.6,131.7,50.4,138.1,63.1,140.6z"/>
					<path class="st1" d="M92.4,137.9c-0.6,0.1-1.1,0.3-1.7,0.4c-0.6,0.1-1.1,0.2-1.7,0.4c-1.1,0.3-2.3,0.4-3.4,0.6
						c1.2-0.2,2.3-0.4,3.4-0.7l1.7-0.4C91.3,138.2,91.8,138,92.4,137.9C92,138,92.3,137.9,92.4,137.9z"/>
					<path class="st1" d="M113.8,128.8c-0.5,0.3-0.9,0.7-1.4,1c1.2-0.8,2.3-1.8,3.5-2.7C115.4,127.5,114.5,128.3,113.8,128.8z"/>
					<path class="st1" d="M67.8,139.7c0.8,0.1,1.7,0.2,2.6,0.3s1.7,0.1,2.5,0.2c-1,0-2-0.1-3-0.1C69.4,140,68.7,139.9,67.8,139.7z"
						/>
					<path class="st1" d="M42.8,131.2c-1-0.6-2-1.2-2.9-1.9s-1.8-1.3-2.7-2c2.2,1.6,4.5,3.2,6.9,4.5
						C43.5,131.6,43.1,131.4,42.8,131.2z"/>
				</g>
			</g>
		</g>
	</g>
</g>
<g>
	<g>
		<g>
			<path class="st1" d="M111.1,103.5v-5.4c0-0.2,0-0.3,0-0.5s0-0.4,0-0.5h0.7l0.1,1.1h-0.1c0.1-0.4,0.3-0.6,0.6-0.8s0.6-0.3,1.1-0.3
				s0.8,0.1,1.1,0.3c0.3,0.2,0.5,0.5,0.7,0.8s0.3,0.8,0.3,1.3s-0.1,0.9-0.2,1.3s-0.4,0.6-0.7,0.8c-0.3,0.2-0.7,0.3-1.1,0.3
				s-0.8-0.1-1-0.3s-0.5-0.5-0.6-0.8h0.1v3h-1V103.5z M113.2,101.1c0.4,0,0.8-0.1,1-0.4c0.3-0.3,0.4-0.7,0.4-1.3
				c0-0.6-0.1-1-0.4-1.3s-0.6-0.4-1-0.4s-0.8,0.1-1,0.4s-0.4,0.7-0.4,1.3c0,0.6,0.1,1,0.4,1.3C112.5,100.9,112.8,101.1,113.2,101.1z
				"/>
			<path class="st1" d="M116.4,103.6l-0.2-0.6c0.3-0.1,0.5-0.1,0.7-0.2s0.3-0.2,0.5-0.3c0.1-0.1,0.2-0.3,0.3-0.5l0.2-0.5v0.3l-2-4.6
				h0.8l1.6,4h-0.2l1.6-4h0.8l-2.1,4.9c-0.1,0.3-0.3,0.5-0.4,0.7s-0.3,0.4-0.5,0.5s-0.3,0.2-0.5,0.3
				C116.9,103.5,116.7,103.6,116.4,103.6z"/>
			<path class="st1" d="M123.4,101.7c-0.7,0-1.2-0.2-1.6-0.6s-0.6-1-0.6-1.9v-0.8c0-0.8,0.2-1.5,0.5-2s0.9-0.9,1.6-1l1.6-0.4
				l0.2,0.6l-1.8,0.4c-0.3,0.1-0.6,0.2-0.8,0.4s-0.4,0.5-0.5,0.7c-0.1,0.3-0.2,0.6-0.2,0.9v0.4h-0.1c0.1-0.3,0.2-0.5,0.4-0.7
				c0.2-0.2,0.4-0.3,0.6-0.5c0.2-0.1,0.5-0.2,0.8-0.2c0.4,0,0.7,0.1,1,0.3c0.3,0.2,0.5,0.4,0.7,0.8c0.2,0.3,0.2,0.7,0.2,1.2
				s-0.1,0.9-0.3,1.2s-0.4,0.6-0.7,0.8C124.2,101.6,123.8,101.7,123.4,101.7z M123.4,101.1c0.4,0,0.8-0.1,1-0.4s0.4-0.7,0.4-1.3
				c0-0.6-0.1-1-0.4-1.3s-0.6-0.4-1-0.4s-0.8,0.1-1,0.4c-0.3,0.3-0.4,0.7-0.4,1.2c0,0.6,0.1,1,0.4,1.3S122.9,101.1,123.4,101.1z"/>
			<path class="st1" d="M126.5,101.6v-0.9h0.9v0.9H126.5z"/>
		</g>
	</g>
	<g>
		<g>
			<polygon class="st1" points="49.6,44.5 38.3,37.8 39.2,36.6 			"/>
		</g>
		<g>
			<polygon class="st1" points="59,42.3 46.3,26 47.5,25.1 			"/>
		</g>
		<g>
			<polygon class="st1" points="66.5,37.2 61.6,24.9 63.1,24.5 			"/>
		</g>
		<g>
			<polygon class="st1" points="73,39.8 71.1,18.4 72.6,18.3 			"/>
		</g>
		<g>
			<polygon class="st1" points="80.8,37.2 84.3,24.5 85.7,24.9 			"/>
		</g>
		<g>
			<polygon class="st1" points="88,40.8 98.7,25.1 99.9,26 			"/>
		</g>
		<g>
			<polygon class="st1" points="97.5,44.5 107.7,36.7 108.6,37.8 			"/>
		</g>
	</g>
	<g>
		<g>
			<g>
				<polygon class="st1" points="97.2,110.5 108.6,117 107.7,118.2 				"/>
			</g>
		</g>
		<g>
			<g>
				<polygon class="st1" points="87.9,112.5 100.6,128.9 99.4,129.8 				"/>
			</g>
		</g>
		<g>
			<g>
				<polygon class="st1" points="80.4,117.6 85.3,129.9 83.8,130.4 				"/>
			</g>
		</g>
		<g>
			<g>
				<polygon class="st1" points="73.9,115 75.8,136.4 74.3,136.6 				"/>
			</g>
		</g>
		<g>
			<g>
				<polygon class="st1" points="66.1,117.6 62.6,130.4 61.2,129.9 				"/>
			</g>
		</g>
		<g>
			<g>
				<polygon class="st1" points="58.9,114 48.2,129.8 47,128.9 				"/>
			</g>
		</g>
		<g>
			<g>
				<polygon class="st1" points="49.4,110.5 39.2,118.2 38.3,117 				"/>
			</g>
		</g>
	</g>
	<text transform="matrix(1 0 0 1 36.8 92.8)" class="st1 st2 st3">300</text>
</g>
</svg>
