<?xml version="1.0" encoding="utf-8"?>
<!-- Generator: Adobe Illustrator 25.2.0, SVG Export Plug-In . SVG Version: 6.00 Build 0)  -->
<svg version="1.1" id="Layer_1" xmlns="http://www.w3.org/2000/svg" xmlns:xlink="http://www.w3.org/1999/xlink" x="0px" y="0px"
	 viewBox="0 0 101 101" style="enable-background:new 0 0 101 101;" xml:space="preserve">
<style type="text/css">
	.st0{fill:#F0801B;}
</style>
<g>
	<path class="st0" d="M83.4,63.9c-0.8,0-1.5,0.7-1.5,1.5v18.5h-63V65.4c0-0.8-0.7-1.5-1.5-1.5s-1.5,0.7-1.5,1.5v20
		c0,0.8,0.7,1.5,1.5,1.5h66c0.8,0,1.5-0.7,1.5-1.5v-20C84.9,64.6,84.2,63.9,83.4,63.9z"/>
	<path class="st0" d="M49.3,69.4c0.3,0.3,0.7,0.4,1.1,0.4s0.8-0.1,1.1-0.4l13-13c0.6-0.6,0.6-1.5,0-2.1c-0.6-0.6-1.5-0.6-2.1,0
		L51.9,64.8V8.4c0-0.8-0.7-1.5-1.5-1.5s-1.5,0.7-1.5,1.5v56.4L38.5,54.3c-0.6-0.6-1.5-0.6-2.1,0c-0.6,0.6-0.6,1.5,0,2.1L49.3,69.4z"
		/>
</g>
</svg>
