<svg width="339" height="151" viewBox="0 0 339 151" fill="none" xmlns="http://www.w3.org/2000/svg">
<g clip-path="url(#clip0_107_47)">
<path d="M307.343 62.4263C299.489 62.4263 293.1 68.3635 293.1 75.6616C293.1 82.9597 299.489 88.8969 307.343 88.8969C315.199 88.8969 321.587 82.9597 321.587 75.6616C321.587 68.3635 315.198 62.4263 307.343 62.4263ZM307.343 82.2793C303.416 82.2793 300.221 79.3112 300.221 75.6616C300.221 72.012 303.416 69.0439 307.343 69.0439C311.271 69.0439 314.465 72.012 314.465 75.6616C314.465 79.3114 311.271 82.2793 307.343 82.2793Z" fill="black"/>
<path d="M258.677 62.4263C250.823 62.4263 244.434 68.3635 244.434 75.6616C244.434 82.9597 250.823 88.8969 258.677 88.8969C266.531 88.8969 272.921 82.9597 272.921 75.6616C272.921 68.3635 266.531 62.4263 258.677 62.4263ZM258.677 82.2793C254.75 82.2793 251.555 79.3112 251.555 75.6616C251.555 72.012 254.75 69.0439 258.677 69.0439C262.604 69.0439 265.799 72.012 265.799 75.6616C265.799 79.3114 262.605 82.2793 258.677 82.2793Z" fill="black"/>
<path d="M316.936 24.5426C316.33 23.4253 315.099 22.7205 313.753 22.7205H294.999V29.3381H311.557L321.254 47.2587L327.618 44.285L316.936 24.5426Z" fill="black"/>
<path d="M296.661 72.4634H269.716V79.081H296.661V72.4634Z" fill="black"/>
<path d="M247.995 72.4634H235.65C233.683 72.4634 232.089 73.9447 232.089 75.7721C232.089 77.5998 233.683 79.0808 235.65 79.0808H247.995C249.962 79.0808 251.556 77.5996 251.556 75.7721C251.556 73.9445 249.961 72.4634 247.995 72.4634Z" fill="black"/>
<path d="M334.252 52.2351L327.248 43.8527C326.575 43.0453 325.536 42.5732 324.436 42.5732H298.56V19.4115C298.56 17.5839 296.966 16.1028 294.999 16.1028H235.65C233.683 16.1028 232.089 17.5841 232.089 19.4115C232.089 21.239 233.683 22.7202 235.65 22.7202H291.438V45.882C291.438 47.7096 293.032 49.1907 294.999 49.1907H322.692L327.878 55.398V72.4628H318.026C316.059 72.4628 314.465 73.944 314.465 75.7715C314.465 77.5991 316.059 79.0802 318.026 79.0802H331.439C333.406 79.0802 335 77.5989 335 75.7715V54.2645C335 53.5299 334.736 52.8152 334.252 52.2351Z" fill="black"/>
<path d="M247.758 55.6987H231.377C229.41 55.6987 227.816 57.18 227.816 59.0075C227.816 60.8351 229.411 62.3162 231.377 62.3162H247.757C249.724 62.3162 251.318 60.8349 251.318 59.0075C251.318 57.18 249.724 55.6987 247.758 55.6987Z" fill="black"/>
<path d="M255.947 42.6838H225.561C223.594 42.6838 222 44.1651 222 45.9928C222 47.8204 223.594 49.3015 225.561 49.3015H255.947C257.914 49.3015 259.508 47.8202 259.508 45.9928C259.508 44.1653 257.914 42.6838 255.947 42.6838Z" fill="black"/>
<path d="M261.764 29.6692H231.377C229.41 29.6692 227.816 31.1505 227.816 32.9779C227.816 34.8056 229.411 36.2866 231.377 36.2866H261.764C263.731 36.2866 265.325 34.8054 265.325 32.9779C265.325 31.1505 263.731 29.6692 261.764 29.6692Z" fill="black"/>
</g>
<path d="M144.633 139H140.297V117.227H128.625V139H124.266V113.641H144.633V139ZM150.445 126.086C150.445 123.602 150.93 121.367 151.898 119.383C152.883 117.398 154.242 115.867 155.977 114.789C157.727 113.711 159.719 113.172 161.953 113.172C165.406 113.172 168.195 114.367 170.32 116.758C172.461 119.148 173.531 122.328 173.531 126.297V126.602C173.531 129.07 173.055 131.289 172.102 133.258C171.164 135.211 169.812 136.734 168.047 137.828C166.297 138.922 164.281 139.469 162 139.469C158.562 139.469 155.773 138.273 153.633 135.883C151.508 133.492 150.445 130.328 150.445 126.391V126.086ZM154.805 126.602C154.805 129.414 155.453 131.672 156.75 133.375C158.062 135.078 159.812 135.93 162 135.93C164.203 135.93 165.953 135.07 167.25 133.352C168.547 131.617 169.195 129.195 169.195 126.086C169.195 123.305 168.531 121.055 167.203 119.336C165.891 117.602 164.141 116.734 161.953 116.734C159.812 116.734 158.086 117.586 156.773 119.289C155.461 120.992 154.805 123.43 154.805 126.602ZM207.258 117.227H195.562V139H191.203V113.641H207.258V117.227ZM209.414 126.086C209.414 123.602 209.898 121.367 210.867 119.383C211.852 117.398 213.211 115.867 214.945 114.789C216.695 113.711 218.688 113.172 220.922 113.172C224.375 113.172 227.164 114.367 229.289 116.758C231.43 119.148 232.5 122.328 232.5 126.297V126.602C232.5 129.07 232.023 131.289 231.07 133.258C230.133 135.211 228.781 136.734 227.016 137.828C225.266 138.922 223.25 139.469 220.969 139.469C217.531 139.469 214.742 138.273 212.602 135.883C210.477 133.492 209.414 130.328 209.414 126.391V126.086ZM213.773 126.602C213.773 129.414 214.422 131.672 215.719 133.375C217.031 135.078 218.781 135.93 220.969 135.93C223.172 135.93 224.922 135.07 226.219 133.352C227.516 131.617 228.164 129.195 228.164 126.086C228.164 123.305 227.5 121.055 226.172 119.336C224.859 117.602 223.109 116.734 220.922 116.734C218.781 116.734 217.055 117.586 215.742 119.289C214.43 120.992 213.773 123.43 213.773 126.602ZM259.359 126.602C259.359 130.461 258.477 133.57 256.711 135.93C254.945 138.289 252.555 139.469 249.539 139.469C246.461 139.469 244.039 138.492 242.273 136.539V148.75H237.938V113.641H241.898L242.109 116.453C243.875 114.266 246.328 113.172 249.469 113.172C252.516 113.172 254.922 114.32 256.688 116.617C258.469 118.914 259.359 122.109 259.359 126.203V126.602ZM255.023 126.109C255.023 123.25 254.414 120.992 253.195 119.336C251.977 117.68 250.305 116.852 248.18 116.852C245.555 116.852 243.586 118.016 242.273 120.344V132.461C243.57 134.773 245.555 135.93 248.227 135.93C250.305 135.93 251.953 135.109 253.172 133.469C254.406 131.812 255.023 129.359 255.023 126.109ZM263.742 126.086C263.742 123.602 264.227 121.367 265.195 119.383C266.18 117.398 267.539 115.867 269.273 114.789C271.023 113.711 273.016 113.172 275.25 113.172C278.703 113.172 281.492 114.367 283.617 116.758C285.758 119.148 286.828 122.328 286.828 126.297V126.602C286.828 129.07 286.352 131.289 285.398 133.258C284.461 135.211 283.109 136.734 281.344 137.828C279.594 138.922 277.578 139.469 275.297 139.469C271.859 139.469 269.07 138.273 266.93 135.883C264.805 133.492 263.742 130.328 263.742 126.391V126.086ZM268.102 126.602C268.102 129.414 268.75 131.672 270.047 133.375C271.359 135.078 273.109 135.93 275.297 135.93C277.5 135.93 279.25 135.07 280.547 133.352C281.844 131.617 282.492 129.195 282.492 126.086C282.492 123.305 281.828 121.055 280.5 119.336C279.188 117.602 277.438 116.734 275.25 116.734C273.109 116.734 271.383 117.586 270.07 119.289C268.758 120.992 268.102 123.43 268.102 126.602ZM290.367 135.461L291.867 133.609C293.555 131.422 294.516 128.141 294.75 123.766L295.148 113.641H311.484V135.461H314.742V146.453H310.406V139H292.711V146.453H288.375L288.398 135.461H290.367ZM295.5 135.461H307.148V117.648H299.344L299.086 123.695C298.82 128.742 297.625 132.664 295.5 135.461ZM327.844 132.648L333.75 113.641H338.391L328.195 142.914C326.617 147.133 324.109 149.242 320.672 149.242L319.852 149.172L318.234 148.867V145.352L319.406 145.445C320.875 145.445 322.016 145.148 322.828 144.555C323.656 143.961 324.336 142.875 324.867 141.297L325.828 138.719L316.781 113.641H321.516L327.844 132.648Z" fill="black"/>
<path d="M14.5117 43.9062H19.9258C22.5039 43.9062 24.4141 43.2617 25.6562 41.9727C26.8984 40.6836 27.5195 38.9727 27.5195 36.8398C27.5195 34.7773 26.8984 33.1719 25.6562 32.0234C24.4375 30.875 22.75 30.3008 20.5938 30.3008C18.6484 30.3008 17.0195 30.8398 15.707 31.918C14.3945 32.9727 13.7383 34.3555 13.7383 36.0664H3.57812C3.57812 33.3945 4.29297 31.0039 5.72266 28.8945C7.17578 26.7617 9.19141 25.0977 11.7695 23.9023C14.3711 22.707 17.2305 22.1094 20.3477 22.1094C25.7617 22.1094 30.0039 23.4102 33.0742 26.0117C36.1445 28.5898 37.6797 32.1523 37.6797 36.6992C37.6797 39.043 36.9648 41.1992 35.5352 43.168C34.1055 45.1367 32.2305 46.6484 29.9102 47.7031C32.793 48.7344 34.9375 50.2812 36.3438 52.3438C37.7734 54.4062 38.4883 56.8438 38.4883 59.6562C38.4883 64.2031 36.8242 67.8477 33.4961 70.5898C30.1914 73.332 25.8086 74.7031 20.3477 74.7031C15.2383 74.7031 11.0547 73.3555 7.79688 70.6602C4.5625 67.9648 2.94531 64.4023 2.94531 59.9727H13.1055C13.1055 61.8945 13.8203 63.4648 15.25 64.6836C16.7031 65.9023 18.4844 66.5117 20.5938 66.5117C23.0078 66.5117 24.8945 65.8789 26.2539 64.6133C27.6367 63.3242 28.3281 61.625 28.3281 59.5156C28.3281 54.4062 25.5156 51.8516 19.8906 51.8516H14.5117V43.9062ZM91.0117 22.2852V30.6523H90.0273C85.4336 30.7227 81.7305 31.918 78.918 34.2383C76.1289 36.5586 74.4531 39.7812 73.8906 43.9062C76.6094 41.1406 80.043 39.7578 84.1914 39.7578C88.6445 39.7578 92.1836 41.3516 94.8086 44.5391C97.4336 47.7266 98.7461 51.9219 98.7461 57.125C98.7461 60.4531 98.0195 63.4648 96.5664 66.1602C95.1367 68.8555 93.0977 70.9531 90.4492 72.4531C87.8242 73.9531 84.8477 74.7031 81.5195 74.7031C76.1289 74.7031 71.7695 72.8281 68.4414 69.0781C65.1367 65.3281 63.4844 60.3242 63.4844 54.0664V50.4102C63.4844 44.8555 64.5273 39.957 66.6133 35.7148C68.7227 31.4492 71.7344 28.1562 75.6484 25.8359C79.5859 23.4922 84.1445 22.3086 89.3242 22.2852H91.0117ZM81.0977 47.9141C79.457 47.9141 77.9688 48.3477 76.6328 49.2148C75.2969 50.0586 74.3125 51.1836 73.6797 52.5898V55.6836C73.6797 59.082 74.3477 61.7422 75.6836 63.6641C77.0195 65.5625 78.8945 66.5117 81.3086 66.5117C83.4883 66.5117 85.2461 65.6562 86.582 63.9453C87.9414 62.2109 88.6211 59.9727 88.6211 57.2305C88.6211 54.4414 87.9414 52.1914 86.582 50.4805C85.2227 48.7695 83.3945 47.9141 81.0977 47.9141ZM139.246 52.8359C139.246 59.9141 137.781 65.3281 134.852 69.0781C131.922 72.8281 127.633 74.7031 121.984 74.7031C116.406 74.7031 112.141 72.8633 109.188 69.1836C106.234 65.5039 104.723 60.2305 104.652 53.3633V43.9414C104.652 36.793 106.129 31.3672 109.082 27.6641C112.059 23.9609 116.336 22.1094 121.914 22.1094C127.492 22.1094 131.758 23.9492 134.711 27.6289C137.664 31.2852 139.176 36.5469 139.246 43.4141V52.8359ZM129.086 42.5C129.086 38.2578 128.5 35.1758 127.328 33.2539C126.18 31.3086 124.375 30.3359 121.914 30.3359C119.523 30.3359 117.754 31.2617 116.605 33.1133C115.48 34.9414 114.883 37.8125 114.812 41.7266V54.1719C114.812 58.3438 115.375 61.4492 116.5 63.4883C117.648 65.5039 119.477 66.5117 121.984 66.5117C124.469 66.5117 126.262 65.5391 127.363 63.5938C128.465 61.6484 129.039 58.6719 129.086 54.6641V42.5ZM180.59 52.8359C180.59 59.9141 179.125 65.3281 176.195 69.0781C173.266 72.8281 168.977 74.7031 163.328 74.7031C157.75 74.7031 153.484 72.8633 150.531 69.1836C147.578 65.5039 146.066 60.2305 145.996 53.3633V43.9414C145.996 36.793 147.473 31.3672 150.426 27.6641C153.402 23.9609 157.68 22.1094 163.258 22.1094C168.836 22.1094 173.102 23.9492 176.055 27.6289C179.008 31.2852 180.52 36.5469 180.59 43.4141V52.8359ZM170.43 42.5C170.43 38.2578 169.844 35.1758 168.672 33.2539C167.523 31.3086 165.719 30.3359 163.258 30.3359C160.867 30.3359 159.098 31.2617 157.949 33.1133C156.824 34.9414 156.227 37.8125 156.156 41.7266V54.1719C156.156 58.3438 156.719 61.4492 157.844 63.4883C158.992 65.5039 160.82 66.5117 163.328 66.5117C165.812 66.5117 167.605 65.5391 168.707 63.5938C169.809 61.6484 170.383 58.6719 170.43 54.6641V42.5Z" fill="black"/>
<defs>
<clipPath id="clip0_107_47">
<rect width="113" height="105" fill="white" transform="translate(222)"/>
</clipPath>
</defs>
</svg>
