<?xml version="1.0" encoding="utf-8"?>
<!-- Generator: Adobe Illustrator 25.2.0, SVG Export Plug-In . SVG Version: 6.00 Build 0)  -->
<svg version="1.1" id="Слой_1" xmlns="http://www.w3.org/2000/svg" xmlns:xlink="http://www.w3.org/1999/xlink" x="0px" y="0px"
	 viewBox="0 0 100 100" style="enable-background:new 0 0 100 100;" xml:space="preserve">
<style type="text/css">
	.st0{fill:#EE5A02;}
	.st1{fill:#F7F8F9;}
	.st2{clip-path:url(#SVGID_2_);}
	.st3{fill-rule:evenodd;clip-rule:evenodd;fill:#FCFCFC;}
</style>
<path class="st0" d="M29.3,20.8c5.5-3.9,12.1-6.1,18.9-6.3c6.8-0.2,13.5,1.5,19.4,4.9c5.9,3.5,10.7,8.5,13.8,14.6
	c3.1,6.1,4.4,12.9,3.8,19.7c-0.7,6.8-3.2,13.2-7.4,18.5c-4.2,5.3-9.9,9.3-16.3,11.4c-6.4,2.1-13.4,2.4-20,0.7
	C34.9,82.6,28.9,79,24.2,74l3.3-3.1c4.1,4.3,9.3,7.4,15,8.9c5.7,1.5,11.8,1.3,17.4-0.6c5.6-1.9,10.5-5.3,14.2-9.9
	c3.7-4.6,5.9-10.2,6.5-16.1c0.6-5.9-0.6-11.8-3.3-17.1c-2.7-5.3-6.9-9.7-12-12.7c-5.1-3-11-4.5-16.9-4.3S36.8,21.2,32,24.5
	L29.3,20.8z"/>
<path class="st1" d="M87.3,48.8c0,7.2-2.1,14.3-6.2,20.4s-9.7,10.7-16.4,13.5c-6.7,2.8-14.1,3.5-21.2,2.1c-7.1-1.4-13.6-4.9-18.8-10
	s-8.6-11.7-10-18.8c-1.4-7.1-0.7-14.5,2.1-21.2c2.8-6.7,7.5-12.4,13.5-16.4s13.1-6.2,20.4-6.2V21c-5.5,0-10.9,1.6-15.5,4.7
	c-4.6,3.1-8.2,7.4-10.3,12.5c-2.1,5.1-2.7,10.7-1.6,16.1c1.1,5.4,3.7,10.4,7.6,14.3c3.9,3.9,8.9,6.5,14.3,7.6s11,0.5,16.1-1.6
	c5.1-2.1,9.4-5.7,12.5-10.3c3.1-4.6,4.7-10,4.7-15.5H87.3z"/>
<g>
	<defs>
		<rect id="SVGID_1_" x="38.2" y="28.3" width="22.9" height="36.6"/>
	</defs>
	<clipPath id="SVGID_2_">
		<use xlink:href="#SVGID_1_"  style="overflow:visible;"/>
	</clipPath>
	<g class="st2">
		<path class="st3" d="M54.9,36.8L54.9,36.8C54.8,36.7,54.8,36.7,54.9,36.8c0-0.1,0-0.2-0.1-0.3c0-0.2-0.1-0.5-0.1-0.8
			c-0.1-0.7-0.1-1.5,0-2.4c0.1-0.9,0.3-1.6,0.6-2.1c0.3-0.4,0.7-0.7,1.5-0.7c0.5,0,0.8,0.1,1,0.3c0.2,0.2,0.5,0.4,0.6,0.7
			c0.4,0.7,0.6,1.6,0.6,2.7c0,1-0.1,2.1-0.4,3.1c-0.8,2.1-0.8,4.4-0.2,6.6c0,0,0,0.1,0,0.1c0.1,0.3,0.2,0.6,0.2,0.9
			c0,0.1,0,0.1,0,0.2c0.4,1.6,0.3,3.4-0.3,4.9c-0.6,1.6-1.5,2.8-2.7,3.7c-0.2,0.2-0.4,0.4-0.4,0.7c0,0.3,0.1,0.6,0.3,0.8
			c0.4,0.4,0.5,0.8,0.5,1.1c0,0.3-0.1,0.6-0.2,1c-0.2,0.3-0.4,0.6-0.6,0.8c-0.1,0.1-0.2,0.2-0.2,0.2c0,0,0,0-0.1,0.1l0,0
			c0,0,0,0,0,0c0,0,0,0,0,0c-0.4,0.4-0.5,1-0.2,1.4c0,0,0,0,0,0c0,0,0,0.1,0,0.2c0,0.2-0.3,0.9-1.9,1.8c-1.3,0.8-3.1,0.7-5.1,0.2
			c-1.9-0.5-3.7-1.4-4.9-2c-0.7-0.4-1-1.2-1.2-2.3c-0.1-0.5-0.1-1,0-1.3c0-0.2,0-0.3,0-0.4c0,0,0-0.1,0-0.1l0,0l0,0c0,0,0,0,0,0
			c0,0,0,0,0,0c0,0,0,0,0,0l0,0c0,0,0,0,0,0c0.1-0.3-0.1-0.7-0.3-0.9c-0.1-0.1-0.2-0.2-0.3-0.5c-0.1-0.3-0.2-0.7-0.2-1.1
			c0-0.1,0-0.2,0-0.4c0.4,0,0.8-0.2,1-0.6c0.3-0.5,0.1-1.2-0.5-1.4c-0.2-0.1-0.4-0.2-0.5-0.4c-0.1-0.3-0.3-0.6-0.6-0.7
			c0-0.1,0-0.2,0-0.3c0,0,0-0.1,0-0.1c0-0.5,0.3-1,0.9-1.5c0.3-0.2,0.6-0.4,0.8-0.5c0.1-0.1,0.2-0.1,0.3-0.1c0,0,0.1,0,0.1,0l0,0
			c0,0,0,0-0.5-1c-0.5-1-0.5-1-0.5-1l0,0l0,0l0,0c0,0,0,0,0,0c0,0,0,0,0,0c0,0-0.1,0-0.1,0.1c-0.1,0-0.2,0.1-0.4,0.2
			c-0.1,0.1-0.2,0.1-0.4,0.2c0-0.2-0.1-0.5-0.1-0.7c0-0.6,0.2-1.2,0.5-1.7c0,0,0,0,0,0.1l1,0.4L41,43.4c0,0,0,0,0,0.1
			c0.5-1.1,1.6-1.8,2.7-2.2c1.1-0.4,2.4-0.7,3.6-0.8c1.2-0.1,2.3-0.2,3.2-0.2c0.4,0,0.8,0,1,0c0.1,0,0.2,0,0.2,0c0,0-0.1,0-0.1,0
			l0.2,1.1l-0.1,1.1l0,0l0,0c0,0,0,0-0.1,0c-0.1,0-0.1,0-0.3,0c-0.2,0-0.5,0-0.9,0c-0.8,0-1.8,0-2.9,0.1c-1.1,0.1-2.2,0.3-3,0.7
			c-0.9,0.3-1.4,0.7-1.5,1.1c0,0,0,0.1-0.1,0.1c-0.1,0.2-0.2,0.4-0.2,0.6c0,0.2,0.1,0.4,0.2,0.6c0.2,0.3,0.2,0.6,0.1,0.9
			c-0.1,0.3-0.3,0.5-0.6,0.7c0,0,0,0,0,0l-0.5-1L41,46.9c-0.2-0.3-0.3-0.7-0.4-1c-0.2,0.1-0.5,0.3-0.7,0.5c-0.7,0.6-1.8,1.7-1.7,3.2
			c0,0.3,0.1,0.7,0.2,1c0.1,0.3,0.2,0.5,0.4,0.7c0,0.7,0,1.5,0,2.2c0.1,0.5,0.1,1,0.3,1.5c0.1,0.3,0.2,0.6,0.4,0.9
			c0,0.1,0,0.2,0,0.3c0,0.4,0,1,0,1.7c0.1,1.2,0.6,3,2.3,3.9c1.2,0.6,3.2,1.6,5.4,2.2c2.1,0.6,4.7,0.8,6.8-0.4
			c1.9-1.1,2.7-2.2,2.9-3.3c0.1-0.4,0-0.7,0-1c0.3-0.3,0.6-0.7,0.9-1.2c0.3-0.5,0.5-1.2,0.5-2c0-0.5-0.1-1-0.4-1.5
			c1.2-1.1,2.1-2.5,2.7-4.1c0.7-1.9,0.8-4,0.4-6c0-0.5-0.2-1-0.4-1.5c-0.5-1.7-0.5-3.6,0.2-5.2c0,0,0-0.1,0-0.1
			c0.3-1.2,0.5-2.4,0.5-3.7c0,0,0-0.1,0-0.1c-0.1-1.1-0.3-2.5-0.9-3.6c-0.3-0.6-0.8-1.1-1.4-1.5c-0.6-0.4-1.4-0.6-2.2-0.6
			c-1.5,0-2.6,0.7-3.3,1.7c-0.6,0.9-0.9,2.1-1,3.1c-0.1,1,0,2.1,0,2.8c0,0.4,0.1,0.7,0.1,0.9c0,0.1,0,0.2,0,0.3c0,0,0,0.1,0,0.1l0,0
			c0,0,0,0.1,0,0.1c0,0.1,0,0.2,0,0.4c0,0.3,0,0.8-0.1,1.2c-0.1,0.9-0.5,1.4-1,1.5c0,0,0,0,0.1,0c0,0,0,0,0,0c0,0,0,0,0,0l0,0l0,0
			l0,0c0,0,0,0-0.1,1.1s-0.1,1.1-0.1,1.1c0.1,0,0.2,0,0.3,0c2-0.4,2.7-2.1,2.9-3.3c0.1-0.6,0.1-1.2,0.1-1.6c0-0.2,0-0.4,0-0.5
			c0-0.1,0-0.1,0-0.2C54.9,36.9,54.9,36.8,54.9,36.8L54.9,36.8L54.9,36.8L54.9,36.8c0,0,0,0-1.1,0.2L54.9,36.8
			C54.9,36.8,54.9,36.8,54.9,36.8z M54.8,59.8C54.8,59.8,54.8,59.8,54.8,59.8L54.8,59.8 M38.7,51.4c0,0.1,0.1,0.1,0.1,0.2L38.7,51.4
			z M38.2,49.6C38.2,49.6,38.2,49.6,38.2,49.6l1.1,0L38.2,49.6C38.2,49.6,38.2,49.6,38.2,49.6z"/>
		<path class="st3" d="M46.2,46.9L46.2,46.9L46.2,46.9c0.1,0,0.2,0.1,0.3,0.1c0.2,0.1,0.4,0.2,0.8,0.3c0.6,0.2,1.5,0.5,2.4,0.8
			c0.9,0.3,1.9,0.5,2.7,0.7c0.4,0.1,0.8,0.1,1,0.2c0.3,0,0.4,0,0.5,0c1.1-0.3,2.2-0.2,3.2,0.3c0,0,0.1,0,0.1,0.1
			c0.8,0.5,1.2,1.2,1.3,2c0.1,0.7-0.1,1.4-0.3,1.9c-0.2,0.6-0.5,1-0.7,1.4c-0.1,0.2-0.2,0.3-0.3,0.4c0,0.1-0.1,0.1-0.1,0.1
			c0,0,0,0,0,0l0,0l0,0l0,0c0,0,0,0-0.9-0.6c0.7,0.8,0.7,0.8,0.7,0.8l0,0l0,0l0,0c0,0,0,0,0,0c0,0,0,0-0.1,0c0,0-0.1,0.1-0.2,0.1
			c-0.1,0.1-0.4,0.2-0.6,0.3c-0.5,0.2-1.3,0.5-2.4,0.6c-2.1,0.2-5.2-0.2-9.5-2.2c-0.5-0.3-0.8-0.9-0.5-1.4c0.3-0.5,0.9-0.8,1.5-0.5
			c4,1.9,6.7,2.2,8.3,2c0.8-0.1,1.4-0.3,1.7-0.4c0.1-0.1,0.2-0.1,0.3-0.2c0-0.1,0.1-0.2,0.2-0.3c0.2-0.3,0.4-0.6,0.5-1
			c0.1-0.4,0.2-0.7,0.2-0.9c0-0.2-0.1-0.3-0.3-0.4c-0.5-0.2-1.1-0.3-1.6-0.1c0,0-0.1,0-0.1,0c-0.4,0.1-0.8,0.1-1.2,0
			c-0.4,0-0.8-0.1-1.3-0.2c-0.9-0.2-1.9-0.4-2.9-0.7c-0.9-0.3-1.8-0.6-2.5-0.8c-0.3-0.1-0.6-0.2-0.8-0.3c-0.1,0-0.2-0.1-0.2-0.1
			l-0.1,0l0,0c0,0,0,0,0.4-1l-0.4,1c-0.6-0.2-0.9-0.8-0.7-1.4C45,47,45.6,46.7,46.2,46.9z M56.3,54.4l0.7,0.8
			c0.1-0.1,0.1-0.1,0.2-0.2L56.3,54.4z"/>
		<path class="st3" d="M44.3,57.8c0.2-0.6,0.8-0.8,1.4-0.6c3.8,1.4,6.2,1.6,7.6,1.5c0.7-0.1,1.1-0.2,1.4-0.3c0.1,0,0.2-0.1,0.2-0.1
			c0,0,0,0,0,0c0.5-0.3,1.1-0.3,1.5,0.2c0.4,0.5,0.3,1.1-0.2,1.5l-0.7-0.8c0.7,0.8,0.7,0.8,0.7,0.8l0,0l0,0l0,0c0,0,0,0,0,0
			c0,0,0,0-0.1,0c0,0-0.1,0.1-0.2,0.1c-0.1,0.1-0.3,0.2-0.5,0.3c-0.5,0.2-1.1,0.4-2,0.4C51.7,61,49,60.7,45,59.2
			C44.4,59,44.1,58.4,44.3,57.8z"/>
		<path class="st3" d="M53.9,44.3c0.2-0.5,0.9-0.8,1.4-0.6c1.7,0.7,2.6,1.8,2.8,2.8c0.1,0.5,0.1,0.9,0.1,1.2c0,0.2,0,0.3-0.1,0.4
			c0,0,0,0.1,0,0.1c-0.3,1.2-1.1,1.9-1.7,2.2c-0.3,0.2-0.7,0.3-0.9,0.4c-0.1,0-0.2,0.1-0.3,0.1c0,0-0.1,0-0.1,0c0,0,0,0,0,0l0,0l0,0
			l0,0c0,0,0,0-0.2-1.1l0.2,1.1c-0.6,0.1-1.2-0.3-1.3-0.8c-0.1-0.6,0.3-1.1,0.9-1.3l0,0 M56,47.6C56,47.6,56,47.6,56,47.6
			c0,0,0-0.1,0-0.1c0-0.1,0-0.2,0-0.4c-0.1-0.3-0.3-0.9-1.6-1.4c-0.6-0.2-0.8-0.9-0.6-1.4"/>
	</g>
</g>
</svg>
